<svg xmlns="http://www.w3.org/2000/svg" width="32" height="32" viewBox="0 0 32 32">
  <g fill="none" fill-rule="evenodd">
    <path fill="#B9B9B9" d="M21.7586535 7.551C21.7586535 5.548 22.5626535 4.532 24.1476535 4.532 26.1506535 4.532 26.5706535 6.168 26.5706535 7.533 26.5636535 7.897 26.5226535 8.259 26.4476535 8.604 25.8856535 10.988 22.3856535 11.028 21.8606535 8.591 21.7946535 8.246 21.7606535 7.897 21.7586535 7.551M27.9426535 8.938C28.0396535 8.486 28.0946535 8.02 28.1036535 7.55 28.1036535 4.743 26.5876535 3 24.1476535 3 21.6926535 3 20.2266535 4.703 20.2266535 7.557 20.2296535 8.006 20.2746535 8.456 20.3586535 8.892 21.2186535 12.9 27.0016535 12.979 27.9426535 8.938M10.2405535 7.549C10.2385535 7.895 10.2055535 8.242 10.1425535 8.576 9.62555348 10.982 6.14155348 11.041 5.55355348 8.618 5.47855348 8.267 5.43555348 7.906 5.42855348 7.551 5.42855348 6.175 5.84855348 4.533 7.85155348 4.533 9.43655348 4.533 10.2405535 5.549 10.2405535 7.549M7.85355348 3C5.41355348 3 3.89755348 4.747 3.89755348 7.566 3.90755348 8.028 3.96155348 8.492 4.05955348 8.95 4.47155348 10.701 6.04755348 11.932 7.84855348 11.94 9.65455348 11.935 11.2685535 10.65 11.6455535 8.879 11.7285535 8.445 11.7725535 7.998 11.7745535 7.551 11.7745535 4.701 10.3085535 3 7.85355348 3M6.28015348 13.2926945C6.37315348 13.4046945 6.47415348 13.5066945 6.58515348 13.5976945 7.06015348 13.9946945 7.68315348 14.1886945 8.30215348 14.1296945 8.66035042 14.0965069 8.99857521 13.984413 9.30221491 13.7984709 9.26687783 14.1211938 9.24976327 14.4537945 9.24982797 14.7937897 9.25431324 15.0290182 9.26566746 15.257257 9.28387518 15.480423 8.94981448 15.5897776 8.59698719 15.6539052 8.23715348 15.6676945 7.20315348 15.7126945 6.15715348 15.3196945 5.39815348 14.5926945 1.67767621 15.1604899 1.53581619 18.0433556 1.53035638 18.2935713L1.53066248 18.4408255C1.53362348 19.0201645 1.54865348 21.0664945 1.55315348 21.1906945 1.56815348 21.3946945 1.50315348 21.5916945 1.36915348 21.7486945 1.23515348 21.9026945 1.04815348 21.9956945.827153482 22.0106945L.789153482 22.0106945C.391153482 22.0096945.0571534817 21.6986945.0271534817 21.2996945.0151534817 21.1256945.0000762030945 18.3356945.0000762030945 18.3116945-.0108465183 16.6856945 1.14915348 13.4886945 5.61015348 13.0216945 5.86115348 12.9986945 6.11715348 13.0946945 6.28015348 13.2926945z"/>
    <path fill="#B9B9B9" d="M29.2914439,13.2926945 C29.3844439,13.4046945 29.4854439,13.5066945 29.5964439,13.5976945 C30.0714439,13.9946945 30.6944439,14.1886945 31.3134439,14.1296945 C31.5536419,14.1074397 31.7848589,14.0497031 32.0026887,13.9580098 C31.9778303,14.2296466 31.9658419,14.5091264 31.965896,14.7937897 C31.9709344,15.0580286 31.9846406,15.3134474 32.0069925,15.5627632 C31.7607432,15.6220564 31.5063938,15.6578095 31.2484439,15.6676945 C30.2144439,15.7126945 29.1684439,15.3196945 28.4094439,14.5926945 C24.7754894,15.1472854 24.5546935,18.0317048 24.5421633,18.2884302 L24.5421466,18.3089405 C24.5457946,18.5304635 24.5598439,21.0637345 24.5644439,21.1906945 C24.5794439,21.3946945 24.5144439,21.5916945 24.3804439,21.7486945 C24.2464439,21.9026945 24.0594439,21.9956945 23.8384439,22.0106945 L23.8004439,22.0106945 C23.4024439,22.0096945 23.0684439,21.6986945 23.0384439,21.2996945 C23.0264439,21.1256945 23.0113667,18.3356945 23.0113667,18.3116945 C23.0004439,16.6856945 24.1604439,13.4886945 28.6214439,13.0216945 C28.8724439,12.9986945 29.1284439,13.0946945 29.2914439,13.2926945 Z" transform="matrix(-1 0 0 1 55.018 0)"/>
    <path fill="#B9B9B9" d="M23.9910535 25.3371L23.9910535 25.1061C23.9910535 23.3691 22.8330535 20.3101 18.4790535 19.8531 18.2280535 19.8581 17.9690535 19.9511 17.8040535 20.1491 17.3560535 20.6811 16.7020535 20.9841 16.0080535 20.9841L15.9950535 20.9841C15.2960535 20.9801 14.6400535 20.6671 14.1960535 20.1261 14.0330535 19.9301 13.7890535 19.8251 13.5290535 19.8501 9.17005348 20.2781 8.00805348 23.3561 8.00805348 25.1061L8.00805348 25.3351C7.99905348 27.9491 8.00505348 28.0421 8.00805348 28.0981 8.03405348 28.5031 8.37205348 28.8161 8.77505348 28.8161 8.79105348 28.8161 8.80605348 28.8161 8.82305348 28.8151 9.24405348 28.7871 9.56605348 28.4221 9.53905348 28.0051 9.53605348 27.9371 9.53405348 27.4191 9.54005348 25.3391L9.54005348 25.1061C9.54005348 24.7811 9.64605348 21.9541 13.3070535 21.4201 13.3730535 21.4831 13.4410535 21.5451 13.5120535 21.6051 15.0320535 22.8781 17.2860535 22.7911 18.7050535 21.4261 22.3520535 21.9841 22.4590535 24.7851 22.4590535 25.1061L22.4590535 25.3411C22.4650535 27.4121 22.4630535 27.9331 22.4590535 28.0011 22.4340535 28.4201 22.7560535 28.7831 23.1900535 28.8121L23.2240535 28.8121 23.2270535 28.8121C23.6300535 28.8121 23.9650535 28.4981 23.9910535 28.0491 23.9920535 27.9281 23.9970535 27.4651 23.9910535 25.3371M13.5759535 14.7853C13.5759535 13.4103 13.9959535 11.7693 15.9989535 11.7693 16.8989535 11.7693 17.5289535 12.0823 17.9229535 12.7243 18.2309535 13.2263 18.3879535 13.9203 18.3869582 14.7853 18.3859535 15.1313 18.3519535 15.4783 18.2899535 15.8103 18.0729535 16.8183 17.2019535 17.5643 16.1859535 17.6393L16.1799535 17.6153 15.9599535 17.6433 15.9479535 17.6433C14.8649535 17.6433 13.9409535 16.9073 13.7009535 15.8533 13.6249535 15.5003 13.5829535 15.1393 13.5759535 14.7853M15.9439535 19.1773L15.9619535 19.1773 16.0259535 19.1773C17.8319535 19.1723 19.4149535 17.8863 19.7909535 16.1153 19.8749535 15.6783 19.9189535 15.2323 19.9209535 14.7873 19.9209535 11.9373 18.4549535 10.2363 15.9989535 10.2363 14.8029535 10.2363 13.7999535 10.6663 13.0999535 11.4803 12.4089535 12.2833 12.0439535 13.4303 12.0439535 14.8013 12.0539535 15.2643 12.1069535 15.7293 12.2049535 16.1833 12.5959535 17.9213 14.1669535 19.1773 15.9439535 19.1773"/>
  </g>
</svg>

