<svg xmlns="http://www.w3.org/2000/svg" width="32" height="32" viewBox="0 0 32 32">
  <g fill="none" fill-rule="evenodd">
    <path fill="#B9B9B9" fill-rule="nonzero" d="M15.8833333,2 C23.5508866,2 29.7666667,8.21578006 29.7666667,15.8833333 C29.7579903,23.5472899 23.5472899,29.7579903 15.8833333,29.7666667 C8.21578006,29.7666667 2,23.5508866 2,15.8833333 C2,8.21578006 8.21578006,2 15.8833333,2 Z M15.8833333,3.5 C9.04420718,3.5 3.5,9.04420718 3.5,15.8833333 C3.5,22.7224595 9.04420718,28.2666676 15.8816352,28.2666676 C22.7184912,28.2589277 28.2589277,22.7184912 28.2666667,15.8833333 C28.2666667,9.04420718 22.7224595,3.5 15.8833333,3.5 Z"/>
    <path fill="#B9B9B9" fill-rule="nonzero" d="M13.6748738,10.4342379 L12.8397646,10.4342379 C12.2378782,10.4342379 11.75,10.9221161 11.75,11.5240025 L11.75,20.3523 C11.75,20.9541864 12.2378782,21.4420646 12.8397646,21.4420646 L13.6748738,21.4420646 C13.9300478,21.4405852 14.1763778,21.3731646 14.3926651,21.2466292 L21.8866381,16.8791571 C22.4081131,16.5712315 22.5810914,15.904227 22.2759971,15.3860152 C22.1830333,15.2266367 22.0488818,15.0924851 21.8868969,14.997994 L14.3945259,10.6291302 C14.1782592,10.5019951 13.9284283,10.4342379 13.6748738,10.4342379 Z M13.655,11.934 L20.522,15.938 L13.651,19.942 L13.249,19.942 L13.249,11.934 L13.655,11.934 Z"/>
  </g>
</svg>

