<svg xmlns="http://www.w3.org/2000/svg" width="32" height="32" viewBox="0 0 32 32">
  <g fill="none" fill-rule="evenodd">
    <path fill="#B9B9B9" fill-rule="nonzero" d="M15.8833333,2 C23.5508866,2 29.7666667,8.21578006 29.7666667,15.8833333 C29.7579903,23.5472899 23.5472899,29.7579903 15.8833333,29.7666667 C8.21578006,29.7666667 2,23.5508866 2,15.8833333 C2,8.21578006 8.21578006,2 15.8833333,2 Z M15.8833333,3.5 C9.04420718,3.5 3.5,9.04420718 3.5,15.8833333 C3.5,22.7224595 9.04420718,28.2666676 15.8816352,28.2666676 C22.7184912,28.2589277 28.2589277,22.7184912 28.2666667,15.8833333 C28.2666667,9.04420718 22.7224595,3.5 15.8833333,3.5 Z"/>
    <path fill="#B9B9B9" fill-rule="nonzero" d="M15.7216714 20.4842379C15.0884375 20.4842379 14.5750999 20.9975755 14.5750999 21.6308094 14.5750999 22.2640433 15.0884375 22.7773808 15.7216714 22.7773808 16.3549053 22.7773808 16.8682428 22.2640433 16.8682428 21.6308094 16.8682428 20.9975755 16.3549053 20.4842379 15.7216714 20.4842379zM15.6190999 9.26204746C14.0487878 9.26420793 12.6354929 10.2130105 12.0391616 11.6649449 11.9171922 11.998405 11.9808818 12.3505142 12.1985702 12.6051118 12.4162587 12.8597095 12.7541987 12.9773264 13.08292 12.9129018 13.4116413 12.8484771 13.6801836 12.6119982 13.785664 12.294064 14.0892634 11.5968996 14.8162535 11.1186568 15.6205137 11.1177614 16.8321194 11.1177617 17.6090999 11.8996414 17.6090999 13.1223332 17.6090999 13.8257773 17.1985907 14.3847124 16.2691853 15.2276945L15.6170251 15.8178933C15.0874499 16.254643 14.7989373 16.946934 14.863155 17.6530475L14.8610999 18.467476C14.8610999 18.9803119 15.2768355 19.3960475 15.7896714 19.3960475 16.0364799 19.3960475 16.2731349 19.2977922 16.4473645 19.1229818 16.6215947 18.9481708 16.7190627 18.7111891 16.71824 18.4643808L16.7196012 17.438357C16.7240147 17.3342243 16.7420058 17.3047568 16.8138781 17.2378068L17.5143604 16.6060798 17.8050028 16.3386157C17.9738034 16.1798071 18.1023737 16.0500495 18.2488648 15.8896382 19.016624 15.0489232 19.4653857 14.1551374 19.4653857 13.1237617 19.4653857 10.8683438 17.8668286 9.26204746 15.6190999 9.26204746z"/>
  </g>
</svg>

