<svg xmlns="http://www.w3.org/2000/svg" width="32" height="32" viewBox="0 0 32 32">
  <defs>
    <style>
      .cls-1 {
        fill: #b9b9b9;
      }
    </style>
  </defs>
  <g id="I_C_O_N_S" data-name="I C O N S">
    <path class="cls-1" d="M15.883,2A13.884,13.884,0,1,1,2,15.883,13.884,13.884,0,0,1,15.883,2Zm0,1.5A12.384,12.384,0,1,0,28.267,15.883,12.383,12.383,0,0,0,15.883,3.5Z"/>
    <path class="cls-1" d="M14.417,9.751A1.389,1.389,0,0,1,15.866,8.3a1.35,1.35,0,0,1,1.428,1.449,1.439,1.439,0,1,1-2.877,0Z"/>
    <rect class="cls-1" x="14.564" y="12.606" width="2.561" height="10.351" rx="1.281"/>
  </g>
</svg>

