<?xml version="1.0" encoding="utf-8"?>
<!-- Generator: Adobe Illustrator 19.1.0, SVG Export Plug-In . SVG Version: 6.00 Build 0)  -->
<svg version="1.1" id="Layer_1" xmlns="http://www.w3.org/2000/svg" xmlns:xlink="http://www.w3.org/1999/xlink" x="0px" y="0px"
	 width="16px" height="16px" viewBox="0 0 16 16" style="enable-background:new 0 0 16 16;" xml:space="preserve">
<g>
	<path id="Blue_6_" style="fill:#3B5998;" d="M15.1,15.9c0.5,0,0.9-0.4,0.9-0.9V0.9C16,0.4,15.6,0,15.1,0H0.9C0.4,0,0,0.4,0,0.9V15
		c0,0.5,0.4,0.9,0.9,0.9H15.1z"/>
	<path id="f_6_" style="fill:#FFFFFF;" d="M11.1,15.9V9.7h2l0.3-2.4h-2.3V5.9c0-0.7,0.2-1.2,1.2-1.2h1.3V2.6c-0.2,0-1-0.1-1.8-0.1
		c-1.8,0-3.1,1.1-3.1,3.2v1.8H6.5v2.4h2.1V16C8.6,15.9,11.1,15.9,11.1,15.9z"/>
</g>
</svg>
